<svg width="20" height="20" viewBox="0 0 20 20" fill="none" xmlns="http://www.w3.org/2000/svg">
<path d="M9.50808 0C9.81101 0.000314119 10.1024 0.108755 10.3227 0.303165C10.5429 0.497575 10.6755 0.763281 10.6932 1.04599C10.711 1.32871 10.6126 1.60709 10.4182 1.82426C10.2237 2.04143 9.94795 2.181 9.64714 2.21444L9.50808 2.22222H3.56553C3.27443 2.22226 2.99346 2.32217 2.77592 2.50302C2.55838 2.68386 2.4194 2.93305 2.38534 3.20333L2.37702 3.33333V16.6667C2.37706 16.9388 2.48393 17.2015 2.67738 17.4049C2.87082 17.6082 3.13737 17.7382 3.42648 17.77L3.56553 17.7778H8.91383C9.21676 17.7781 9.50812 17.8865 9.7284 18.0809C9.94867 18.2754 10.0812 18.5411 10.099 18.8238C10.1167 19.1065 10.0183 19.3849 9.82391 19.602C9.62948 19.8192 9.35369 19.9588 9.05288 19.9922L8.91383 20H3.56553C2.65607 20 1.78097 19.6752 1.11927 19.0919C0.457568 18.5086 0.0592977 17.711 0.00594269 16.8622L5.53899e-09 16.6667V3.33333C-5.06564e-05 2.4831 0.347431 1.66498 0.97135 1.04638C1.59527 0.42777 2.44846 0.0554361 3.35635 0.00555568L3.56553 0H9.50808ZM16.2909 6.07111L19.652 9.21445C19.8748 9.42281 20 9.70537 20 10C20 10.2946 19.8748 10.5772 19.652 10.7856L16.2909 13.9289C16.0679 14.1372 15.7655 14.2542 15.4502 14.2541C15.1349 14.254 14.8326 14.1368 14.6098 13.9283C14.3869 13.7198 14.2618 13.4371 14.2619 13.1424C14.262 12.8476 14.3873 12.565 14.6104 12.3567L15.9427 11.1111H9.50808C9.19287 11.1111 8.89057 10.994 8.66768 10.7857C8.44479 10.5773 8.31957 10.2947 8.31957 10C8.31957 9.70532 8.44479 9.4227 8.66768 9.21433C8.89057 9.00595 9.19287 8.88889 9.50808 8.88889H15.9427L14.6104 7.64333C14.3873 7.43499 14.262 7.15236 14.2619 6.85762C14.2618 6.56287 14.3869 6.28016 14.6098 6.07167C14.8326 5.86318 15.1349 5.74599 15.4502 5.74589C15.7655 5.74578 16.0679 5.86277 16.2909 6.07111V6.07111Z" fill="#6839EF"/>
</svg>
