<svg width="30" height="30" viewBox="0 0 30 30" fill="none" xmlns="http://www.w3.org/2000/svg">
<path d="M3.75 14.0625H0.9375C0.42 14.0625 0 14.4825 0 15C0 15.5175 0.42 15.9375 0.9375 15.9375H3.75C4.2675 15.9375 4.6875 15.5175 4.6875 15C4.6875 14.4825 4.2675 14.0625 3.75 14.0625ZM15 4.6875C15.5175 4.6875 15.9375 4.2675 15.9375 3.75V0.9375C15.9375 0.42 15.5175 0 15 0C14.4825 0 14.0625 0.42 14.0625 0.9375V3.75C14.0625 4.2675 14.4825 4.6875 15 4.6875ZM24.0197 7.29373L25.9894 5.32402C26.3522 4.96123 26.3522 4.37338 25.9894 4.01059C25.6266 3.64779 25.0387 3.64779 24.6759 4.01059L22.7062 5.98029C22.3434 6.34309 22.3434 6.93093 22.7062 7.29373C23.0691 7.65657 23.6569 7.65657 24.0197 7.29373ZM6.94686 21.7406L4.97716 23.7103C4.61436 24.0731 4.61436 24.661 4.97716 25.0238C5.33995 25.3866 5.92779 25.3866 6.29059 25.0238L8.26029 23.0541C8.62309 22.6913 8.62309 22.1034 8.26029 21.7406C7.8975 21.3778 7.30971 21.3778 6.94686 21.7406ZM6.3825 7.70814C6.74907 8.07471 7.3425 8.07471 7.70809 7.70814C8.07373 7.34157 8.07373 6.74814 7.70809 6.38255L5.71971 4.39314C5.35314 4.02657 4.75971 4.02657 4.39407 4.39314C4.0275 4.75971 4.0275 5.35314 4.39407 5.71877L6.3825 7.70814ZM15 25.3125C14.4825 25.3125 14.0625 25.7325 14.0625 26.25V29.0625C14.0625 29.58 14.4825 30 15 30C15.5175 30 15.9375 29.58 15.9375 29.0625V26.25C15.9375 25.7325 15.5175 25.3125 15 25.3125ZM23.6175 22.2919C23.2509 21.9253 22.6575 21.9253 22.2919 22.2919C21.9253 22.6585 21.9253 23.2519 22.2919 23.6175L24.2803 25.6059C24.6469 25.9725 25.2403 25.9725 25.6059 25.6059C25.9716 25.2393 25.9725 24.6459 25.6059 24.2803L23.6175 22.2919ZM29.0625 14.0625H26.25C25.7325 14.0625 25.3125 14.4825 25.3125 15C25.3125 15.5175 25.7325 15.9375 26.25 15.9375H29.0625C29.58 15.9375 30 15.5175 30 15C30 14.4825 29.58 14.0625 29.0625 14.0625ZM15 6.55686C10.3369 6.55686 6.55686 10.3369 6.55686 15C6.55686 19.6631 10.3369 23.4431 15 23.4431C19.6631 23.4431 23.4431 19.6631 23.4431 15C23.4431 10.3369 19.6631 6.55686 15 6.55686ZM15 21.5606C11.3766 21.5606 8.43936 18.6234 8.43936 15C8.43936 11.3766 11.3766 8.43936 15 8.43936C18.6234 8.43936 21.5606 11.3766 21.5606 15C21.5606 18.6234 18.6234 21.5606 15 21.5606Z" fill="#FF9A29"/>
</svg>
